<?xml version="1.0" encoding="utf-8"?>
<!-- Generator: Adobe Illustrator 16.0.0, SVG Export Plug-In . SVG Version: 6.00 Build 0)  -->
<!DOCTYPE svg PUBLIC "-//W3C//DTD SVG 1.1//EN" "http://www.w3.org/Graphics/SVG/1.1/DTD/svg11.dtd">
<svg version="1.1" id="_x2018_лой_1" xmlns="http://www.w3.org/2000/svg" xmlns:xlink="http://www.w3.org/1999/xlink" x="0px"
	 y="0px" width="71px" height="100px" viewBox="0 0 71 100" enable-background="new 0 0 71 100" xml:space="preserve">
<g>
	<path fill="#FAFAE3" d="M52.172,25.534c0,0,9.154-5.942,11.207-14.799c2.052-8.858-9.127-12.711-12.838-8.581
		c-3.812,4.246,1.673,6.858,1.673,6.858s-2.66,1.517-1.919,3.695c0.699,2.06,3.008,2.134,3.008,2.134s-1.779,0.82-0.543,2.474
		C53.997,18.968,54.84,21.746,52.172,25.534z"/>
	<path fill="#FAFAE3" d="M55.701,23.447c0,0,2.689-2.038,4.779-4.566c2.092-2.529,3.049-5.139,3.049-5.139s3.784-1.102,5.605,1.58
		c1.822,2.681-0.614,5.705-2.811,5.899c-2.195,0.195-2.767-0.61-2.767-0.61s-0.035,1.617-1.747,2.032
		C60.097,23.058,59.801,21.398,55.701,23.447z"/>
	<g>
		<path fill="#BC662A" d="M17.055,45.451c0,0-7.33,10.172-0.673,16.404c6.657,6.232,14.466,6.889,19.597-1.001
			c5.135-7.891-4.041-14.612-10.021-13.513c-5.35,0.986-5.405,3.06-5.405,3.06L17.055,45.451z"/>
		<path fill="#BC662A" d="M39.791,56.658c0,0-6.978,9.984-0.846,15.951c6.131,5.97,13.408,6.503,18.303-1.234
			c4.898-7.737-3.576-14.146-9.174-12.999c-5.006,1.028-5.084,3.045-5.084,3.045L39.791,56.658z"/>
		<path fill="#BC662A" d="M46.939,38.132c0,0-5.238,7.295-0.496,11.752s10.309,4.919,13.977-0.74
			c3.67-5.659-2.865-10.463-7.132-9.668c-3.818,0.711-3.858,2.198-3.858,2.198L46.939,38.132z"/>
		<path fill="#BC662A" d="M31.293,28.698c0,0-5.237,7.294-0.498,11.751c4.742,4.457,10.31,4.918,13.979-0.739
			c3.67-5.658-2.867-10.463-7.133-9.668c-3.815,0.711-3.859,2.197-3.859,2.197L31.293,28.698z"/>
		<g>
			<g>
				<path fill="#2D2112" d="M25.598,55.331c0,0-2.892-1.323-1.248-4.261c1.235-2.211,5.436-1.92,6.653,1.405
					c1.589,4.334-4.108,10.582-9.883,5.834c-5.487-4.511-0.181-17.517,10.173-13.989c11.805,4.023,8.805,21.214-2.068,23.924
					c-5.244,1.308-9.696-0.888-12.629-3.896c-3.253-3.333-4.062-8.772-2.853-13.391c2.097-8.012,8.725-10.907,8.725-10.907
					l2.784,3.478l-1,0.36l-1.842-1.583c0,0-6.311,2.91-7.285,10.682c-0.979,7.773,6.255,13.988,13.715,12.36
					c7.613-1.662,10.619-13.092,5.849-17.442c-4.767-4.349-12.532-3.241-14.146,3.997c-1.617,7.237,8.24,8.463,8.715,2.553
					C29.636,49.756,22.738,51.578,25.598,55.331z"/>
				<path fill="#2D2112" d="M37.361,35.701c0,0-2.227-1.002-1.002-3.138c0.924-1.608,4.135-1.348,5.104,1.102
					c1.263,3.196-3.027,7.712-7.492,4.169c-4.245-3.367-0.327-12.841,7.624-10.144c9.071,3.078,6.966,15.646-1.319,17.515
					c-3.996,0.901-7.424-0.757-9.699-2.994c-2.521-2.479-3.201-6.475-2.326-9.847c1.518-5.851,6.552-7.9,6.552-7.9l2.167,2.58
					l-0.762,0.253l-1.426-1.182c0,0-4.793,2.063-5.455,7.751c-0.661,5.688,4.936,10.323,10.625,9.21
					c5.801-1.134,7.975-9.482,4.279-12.723c-3.693-3.24-9.618-2.51-10.773,2.776c-1.154,5.288,6.396,6.293,6.693,1.967
					C40.388,31.657,35.135,32.918,37.361,35.701z"/>
				<path fill="#2D2112" d="M42.78,27.32c0,0,6.356-9.685,7.499-9.215c1.144,0.47-5.34,10.562-5.34,10.562l-0.785-0.583
					c0,0,5.23-7.453,4.965-7.985C48.855,19.569,42.78,27.32,42.78,27.32z"/>
				<polygon fill="#2D2112" points="16.9,65.799 16.711,65.403 3.237,84.083 5.572,87.616 8.111,87.062 19.748,67.696 
					18.766,67.054 5.986,85.951 4.768,84 				"/>
			</g>
			<path fill="#2D2112" d="M47.435,65.713c0,0-2.89-0.47-2.148-3.489c0.56-2.275,4.356-3.044,6.248-0.381
				c2.464,3.473-1.067,10.437-7.347,7.621c-5.963-2.674-4.43-15.564,5.615-14.959c11.451,0.69,12.982,16.744,3.998,21.825
				c-4.336,2.451-8.818,1.586-12.154-0.375c-3.697-2.173-5.742-6.82-5.794-11.233c-0.095-7.652,5.079-11.857,5.079-11.857
				l3.318,2.415l-0.801,0.568l-2.021-0.96c0,0-4.887,4.14-3.855,11.305c1.029,7.165,8.958,10.932,15.18,7.649
				c6.349-3.345,6.227-14.269,0.937-16.975c-5.293-2.708-11.909,0.186-11.577,7.03c0.333,6.844,9.374,5.52,8.355,0.137
				C49.656,59.755,43.982,63.07,47.435,65.713z"/>
			<path fill="#2D2112" d="M53.082,45.338c0,0-2.219-0.347-1.653-2.549c0.425-1.659,3.342-2.217,4.798-0.271
				c1.899,2.537-0.804,7.615-5.631,5.553c-4.586-1.96-3.424-11.363,4.289-10.909c8.799,0.518,9.994,12.234,3.1,15.93
				c-3.322,1.782-6.77,1.145-9.334-0.289c-2.842-1.59-4.417-4.984-4.466-8.204c-0.081-5.584,3.889-8.646,3.889-8.646l2.549,1.768
				l-0.611,0.412l-1.552-0.704c0,0-3.75,3.015-2.949,8.244c0.801,5.23,6.895,7.987,11.667,5.603
				c4.871-2.434,4.765-10.405,0.695-12.387c-4.065-1.981-9.142,0.121-8.879,5.117c0.265,4.993,7.209,4.038,6.417,0.11
				C54.783,40.993,50.43,43.405,53.082,45.338z"/>
			<path fill="#2D2112" d="M55.846,36.542c0,0,3.279-10.186,4.406-10.049c1.13,0.137-2.16,10.721-2.16,10.721l-0.84-0.326
				c0,0,2.823-7.926,2.459-8.333C59.347,28.145,55.846,36.542,55.846,36.542z"/>
			<polygon fill="#2D2112" points="42.27,77.173 41.922,76.833 34.609,96.816 37.543,99.392 39.658,98.276 45.259,78.167 
				44.233,77.836 37.503,97.806 35.945,96.366 			"/>
			<path fill="#2D2112" d="M7.967,45.266c1.644-4.629,18.406-11.264,18.406-11.264l0.617-1.982c0,0-26.784,7.064-26.491,19.419
				c0.117,4.826,3.808,13.583,9.019,21.722l5.914-7.658C10.203,57.598,6.647,48.979,7.967,45.266z"/>
			<path fill="#2D2112" d="M31.584,81.122c-3.887-1.292-8.381-5.403-12.412-10.462l-5.358,8.597
				c4.751,6.094,10.15,11.007,15.103,12.307c2.023,0.53,4.238,0.553,6.552,0.198l3.835-10.125
				C36.437,81.958,33.769,81.849,31.584,81.122z"/>
			<path fill="#2D2112" d="M62.008,51.459l-1.519,1.7c0,0,9.935,10.619,4.036,17.479c-2.575,2.997-10.916,7.551-19.184,9.805
				l-2.224,9.035c9.19-3.873,18.331-11.238,22.196-15.032C75.867,64.092,62.008,51.459,62.008,51.459z"/>
		</g>
	</g>
</g>
</svg>
